REM DIRINDEX 1\2\3,1\2\4,1\2\5,1\2\6
REM DIRNAME folder01,folder02,folder03,folder04,folder05,folder06
TITLE ""
FILE "054 054.mp3" MP3
  TRACK 01 AUDIO
    TITLE "0:"
    INDEX 01 00:00:00
  TRACK 02 AUDIO
    TITLE "3:cjc157_2046"
    INDEX 01 00:00:13
  TRACK 03 AUDIO
    TITLE "0:"
    INDEX 01 00:01:32
  TRACK 04 AUDIO
    TITLE "4:cjc157_2047"
    INDEX 01 00:02:02
  TRACK 05 AUDIO
    TITLE "0:"
    INDEX 01 00:03:27
  TRACK 06 AUDIO
    TITLE "5:cjc157_2048"
    INDEX 01 00:03:70
  TRACK 07 AUDIO
    TITLE "0:"
    INDEX 01 00:07:31
  TRACK 08 AUDIO
    TITLE "5:cjc157_2049"
    INDEX 01 00:08:05
  TRACK 09 AUDIO
    TITLE "0:"
    INDEX 01 00:10:02
  TRACK 10 AUDIO
    TITLE "3:cjc157_2050"
    INDEX 01 00:10:47
  TRACK 11 AUDIO
    TITLE "0:"
    INDEX 01 00:11:60
  TRACK 12 AUDIO
    TITLE "4:cjc157_2051"
    INDEX 01 00:12:26
  TRACK 13 AUDIO
    TITLE "0:"
    INDEX 01 00:13:57
  TRACK 14 AUDIO
    TITLE "5:cjc157_2052"
    INDEX 01 00:14:23
  TRACK 15 AUDIO
    TITLE "0:"
    INDEX 01 00:16:63
  TRACK 16 AUDIO
    TITLE "5:cjc157_2053"
    INDEX 01 00:17:37
  TRACK 17 AUDIO
    TITLE "0:"
    INDEX 01 00:20:47
  TRACK 18 AUDIO
    TITLE "3:cjc157_2054"
    INDEX 01 00:21:15
  TRACK 19 AUDIO
    TITLE "0:"
    INDEX 01 00:22:50
  TRACK 20 AUDIO
    TITLE "4:cjc157_2055"
    INDEX 01 00:23:24
  TRACK 21 AUDIO
    TITLE "0:"
    INDEX 01 00:24:57
  TRACK 22 AUDIO
    TITLE "5:cjc157_2056"
    INDEX 01 00:25:27
  TRACK 23 AUDIO
    TITLE "0:"
    INDEX 01 00:27:63
  TRACK 24 AUDIO
    TITLE "3:cjc157_2057"
    INDEX 01 00:28:35
  TRACK 25 AUDIO
    TITLE "0:"
    INDEX 01 00:30:06
  TRACK 26 AUDIO
    TITLE "4:cjc157_2058"
    INDEX 01 00:30:54
  TRACK 27 AUDIO
    TITLE "0:"
    INDEX 01 00:32:01
  TRACK 28 AUDIO
    TITLE "5:cjc157_2059"
    INDEX 01 00:32:45
  TRACK 29 AUDIO
    TITLE "0:"
    INDEX 01 00:37:18
  TRACK 30 AUDIO
    TITLE "5:cjc157_2060"
    INDEX 01 00:37:61
  TRACK 31 AUDIO
    TITLE "0:"
    INDEX 01 00:39:68
  TRACK 32 AUDIO
    TITLE "3:cjc157_2061"
    INDEX 01 00:40:50
  TRACK 33 AUDIO
    TITLE "0:"
    INDEX 01 00:42:19
  TRACK 34 AUDIO
    TITLE "4:cjc157_2062"
    INDEX 01 00:42:65
  TRACK 35 AUDIO
    TITLE "0:"
    INDEX 01 00:44:07
  TRACK 36 AUDIO
    TITLE "5:cjc157_2063"
    INDEX 01 00:44:50
  TRACK 37 AUDIO
    TITLE "0:"
    INDEX 01 00:47:27
  TRACK 38 AUDIO
    TITLE "5:cjc157_2064"
    INDEX 01 00:47:72
  TRACK 39 AUDIO
    TITLE "0:"
    INDEX 01 00:51:65
  TRACK 40 AUDIO
    TITLE "3:cjc157_2065"
    INDEX 01 00:52:34
  TRACK 41 AUDIO
    TITLE "0:"
    INDEX 01 00:53:45
  TRACK 42 AUDIO
    TITLE "4:cjc157_2066"
    INDEX 01 00:54:13
  TRACK 43 AUDIO
    TITLE "0:"
    INDEX 01 00:55:26
  TRACK 44 AUDIO
    TITLE "5:cjc157_2067"
    INDEX 01 00:55:73
  TRACK 45 AUDIO
    TITLE "0:"
    INDEX 01 00:58:30
  TRACK 46 AUDIO
    TITLE "3:cjc157_2068"
    INDEX 01 00:59:04
  TRACK 47 AUDIO
    TITLE "0:"
    INDEX 01 01:00:41
  TRACK 48 AUDIO
    TITLE "4:cjc157_2069"
    INDEX 01 01:01:13
  TRACK 49 AUDIO
    TITLE "0:"
    INDEX 01 01:02:30
  TRACK 50 AUDIO
    TITLE "5:cjc157_2070"
    INDEX 01 01:02:69
  TRACK 51 AUDIO
    TITLE "0:"
    INDEX 01 01:05:40
  TRACK 52 AUDIO
    TITLE "3:cjc157_2071"
    INDEX 01 01:06:10
  TRACK 53 AUDIO
    TITLE "0:"
    INDEX 01 01:07:37
  TRACK 54 AUDIO
    TITLE "4:cjc157_2072"
    INDEX 01 01:08:09
  TRACK 55 AUDIO
    TITLE "0:"
    INDEX 01 01:09:12
  TRACK 56 AUDIO
    TITLE "5:cjc157_2073"
    INDEX 01 01:09:59
  TRACK 57 AUDIO
    TITLE "0:"
    INDEX 01 01:13:42
  TRACK 58 AUDIO
    TITLE "3:cjc157_2074"
    INDEX 01 01:14:12
  TRACK 59 AUDIO
    TITLE "0:"
    INDEX 01 01:15:39
  TRACK 60 AUDIO
    TITLE "4:cjc157_2075"
    INDEX 01 01:16:07
  TRACK 61 AUDIO
    TITLE "0:"
    INDEX 01 01:17:20
  TRACK 62 AUDIO
    TITLE "5:cjc157_2076"
    INDEX 01 01:17:67
  TRACK 63 AUDIO
    TITLE "0:"
    INDEX 01 01:20:32
  TRACK 64 AUDIO
    TITLE "5:cjc157_2077"
    INDEX 01 01:21:04
  TRACK 65 AUDIO
    TITLE "0:"
    INDEX 01 01:23:60
  TRACK 66 AUDIO
    TITLE "5:cjc157_2078"
    INDEX 01 01:24:30
  TRACK 67 AUDIO
    TITLE "0:"
    INDEX 01 01:26:40
  TRACK 68 AUDIO
    TITLE "3:cjc157_2079"
    INDEX 01 01:27:10
  TRACK 69 AUDIO
    TITLE "0:"
    INDEX 01 01:28:47
  TRACK 70 AUDIO
    TITLE "4:cjc157_2080"
    INDEX 01 01:29:23
  TRACK 71 AUDIO
    TITLE "0:"
    INDEX 01 01:32:33
  TRACK 72 AUDIO
    TITLE "5:cjc157_2081"
    INDEX 01 01:33:01
  TRACK 73 AUDIO
    TITLE "0:"
    INDEX 01 01:36:21
  TRACK 74 AUDIO
    TITLE "5:cjc157_2082"
    INDEX 01 01:36:64
  TRACK 75 AUDIO
    TITLE "0:"
    INDEX 01 01:39:08
  TRACK 76 AUDIO
    TITLE "5:cjc157_2083"
    INDEX 01 01:39:59
  TRACK 77 AUDIO
    TITLE "0:"
    INDEX 01 01:42:08
